<svg width="165" height="30" viewBox="0 0 165 30" fill="none" xmlns="http://www.w3.org/2000/svg">
<path d="M45.1707 20.3029C46.4248 20.3029 47.4478 19.8369 48.2436 18.9067L49.8776 20.4878C48.5813 21.8595 47.0519 22.5444 45.2913 22.5444C43.5308 22.5444 42.0818 22.0237 40.9422 20.9784C39.8027 19.935 39.2339 18.618 39.2339 17.0255C39.2339 15.4331 39.8148 14.1067 40.9744 13.0425C42.136 11.9784 43.5549 11.4463 45.233 11.4463C47.1081 11.4463 48.6777 12.1161 49.9419 13.4576L48.3562 15.1463C47.5503 14.2048 46.5474 13.735 45.3476 13.735C44.3889 13.735 43.569 14.0293 42.8877 14.618C42.2064 15.2067 41.8667 15.9991 41.8667 16.9972C41.8667 17.9953 42.1883 18.7954 42.8314 19.3991C43.4745 20.0029 44.2543 20.3048 45.1687 20.3048L45.1707 20.3029Z" fill="#2D73B5"/>
<path d="M62.4847 20.9406C61.3291 21.9991 59.9062 22.5293 58.218 22.5293C56.5298 22.5293 55.1069 21.9991 53.9513 20.9406C52.7957 19.8821 52.2189 18.5633 52.2189 16.9878C52.2189 15.4123 52.7957 14.0953 53.9513 13.035C55.1069 11.9765 56.5278 11.4463 58.218 11.4463C59.9082 11.4463 61.3291 11.9765 62.4847 13.035C63.6403 14.0935 64.2171 15.4123 64.2171 16.9878C64.2171 18.5633 63.6403 19.8821 62.4847 20.9406ZM61.6185 16.9953C61.6185 16.0387 61.2909 15.2218 60.6377 14.5482C59.9846 13.8727 59.1807 13.535 58.2261 13.535C57.2714 13.535 56.4695 13.8727 55.8144 14.5482C55.1612 15.2236 54.8336 16.0387 54.8336 16.9953C54.8336 17.9519 55.1612 18.7652 55.8144 19.435C56.4675 20.1048 57.2714 20.4406 58.2261 20.4406C59.1807 20.4406 59.9846 20.1048 60.6377 19.435C61.2909 18.7652 61.6185 17.9519 61.6185 16.9953Z" fill="#2D73B5"/>
<path d="M75.8415 11.6914V13.8254H70.1519V16.0348H75.2687V18.0763H70.1519V20.3008H76.0203V22.4197H67.6015V11.6914H75.8415Z" fill="#2D73B5"/>
<path d="M87.516 11.6914H90.0664V22.4197H87.516L82.0716 15.6971V22.4197H79.5213V11.6914H81.9088L87.516 18.599V11.6914Z" fill="#2D73B5"/>
<path d="M102.344 11.6914V13.8254H96.6543V16.0348H101.771V18.0763H96.6543V20.3008H102.523V22.4197H94.104V11.6914H102.344Z" fill="#2D73B5"/>
<path d="M115.291 15.2518C115.291 16.9707 114.565 18.082 113.118 18.582L116.012 22.4197H112.873L110.339 18.9971H108.572V22.4197H106.022V11.6914H110.355C112.131 11.6914 113.398 11.9725 114.155 12.5348C114.913 13.0971 115.291 14.0027 115.291 15.2518ZM112.218 16.5273C112.533 16.2612 112.692 15.8386 112.692 15.2612C112.692 14.6839 112.529 14.2857 112.202 14.0706C111.874 13.8556 111.303 13.748 110.485 13.748H108.572V16.9254H110.435C111.307 16.9254 111.9 16.7933 112.218 16.5254V16.5273Z" fill="#2D73B5"/>
<path d="M126.555 16.9557H129.122V20.7633C127.988 21.9501 126.419 22.5444 124.413 22.5444C122.735 22.5444 121.326 22.0237 120.186 20.9784C119.047 19.935 118.478 18.618 118.478 17.0255C118.478 15.4331 119.059 14.1067 120.219 13.0425C121.378 11.9784 122.779 11.4463 124.421 11.4463C126.063 11.4463 127.486 11.952 128.696 12.9652L127.371 14.7614C126.859 14.3425 126.388 14.0538 125.956 13.8935C125.526 13.735 125.06 13.6557 124.558 13.6557C123.587 13.6557 122.771 13.9652 122.106 14.584C121.441 15.2029 121.109 16.0199 121.109 17.0312C121.109 18.0425 121.428 18.8557 122.066 19.4633C122.703 20.0727 123.464 20.3765 124.347 20.3765C125.229 20.3765 125.964 20.218 126.553 19.901V16.9538L126.555 16.9557Z" fill="#2D73B5"/>
<path d="M137.346 22.4217H134.795V18.1858L130.84 11.6934H133.603L136.071 15.6839L138.539 11.6934H141.303L137.346 18.1858V22.4217Z" fill="#2D73B5"/>
<path d="M144.9 17.0501C144.748 17.1689 144.671 17.3255 144.671 17.5199C144.671 17.7142 144.764 17.8708 144.953 17.9859C145.139 18.101 145.574 18.2369 146.251 18.3935C146.928 18.5501 147.455 18.7859 147.83 19.0991C148.204 19.4123 148.393 19.8708 148.393 20.4708C148.393 21.0708 148.152 21.5614 147.672 21.935C147.191 22.3086 146.558 22.4972 145.775 22.4972C144.643 22.4972 143.624 22.1048 142.718 21.3161L143.668 20.2218C144.438 20.8557 145.151 21.1727 145.805 21.1727C146.098 21.1727 146.327 21.1142 146.494 20.9954C146.661 20.8765 146.743 20.7161 146.743 20.5161C146.743 20.3161 146.655 20.1557 146.478 20.0369C146.301 19.918 145.949 19.7991 145.425 19.6765C144.593 19.4916 143.984 19.2501 143.6 18.952C143.214 18.6538 143.023 18.1878 143.023 17.5501C143.023 16.9123 143.266 16.4218 143.755 16.0765C144.243 15.7312 144.852 15.5576 145.58 15.5576C146.058 15.5576 146.534 15.635 147.013 15.7878C147.489 15.9406 147.905 16.1595 148.261 16.4406L147.453 17.535C146.832 17.0935 146.193 16.8727 145.529 16.8727C145.264 16.8727 145.055 16.9312 144.9 17.0501Z" fill="#2D73B5"/>
<path d="M155.528 22.4213L154.865 20.9723H151.868L151.205 22.4213H149.507L152.596 15.7119H154.139L157.228 22.4213H155.53H155.528ZM153.371 17.7081L152.471 19.6572H154.26L153.369 17.7081H153.371Z" fill="#2D73B5"/>
<path d="M18.4552 13.511H12.8721L10.0283 8.26953H15.6094L18.4552 13.511Z" fill="#2D73B5"/>
<path d="M24.6653 13.511H19.0823L16.2365 8.26953H21.8195L24.6653 13.511Z" fill="#2D73B5"/>
<path d="M30.8754 13.511H25.2923L22.4485 8.26953H28.0316L30.8754 13.511Z" fill="#2D73B5"/>
<path d="M24.7497 25.1088H19.1666L16.3228 19.8691H21.9059L24.7497 25.1088Z" fill="#2D73B5"/>
<path d="M30.9598 25.1088H25.3767L22.5329 19.8691H28.116L30.9598 25.1088Z" fill="#2D73B5"/>
<path d="M37.1699 25.1088H31.5868L28.743 19.8691H34.3261L37.1699 25.1088Z" fill="#2D73B5"/>
<path d="M21.6025 19.3108H16.0194L13.1756 14.0693H18.7587L21.6025 19.3108Z" fill="#2D73B5"/>
<path d="M27.8125 19.3108H22.2295L19.3857 14.0693H24.9688L27.8125 19.3108Z" fill="#2D73B5"/>
<path d="M34.0227 19.3108H28.4396L25.5958 14.0693H31.1789L34.0227 19.3108Z" fill="#2D73B5"/>
<path d="M8.99771 7.75821L17.6095 7.84123C15.9072 6.845 13.8995 6.26953 11.747 6.26953C5.61732 6.26953 0.649231 10.9356 0.649231 16.6884C0.649231 22.4412 5.61933 27.1092 11.747 27.1092C14.2411 27.1092 16.6287 26.2431 18.4817 24.9393" fill="#F8BF25"/>
<path d="M45.1707 20.3029C46.4248 20.3029 47.4478 19.8369 48.2436 18.9067L49.8776 20.4878C48.5813 21.8595 47.0519 22.5444 45.2913 22.5444C43.5308 22.5444 42.0818 22.0237 40.9422 20.9784C39.8027 19.935 39.2339 18.618 39.2339 17.0255C39.2339 15.4331 39.8148 14.1067 40.9744 13.0425C42.136 11.9784 43.5549 11.4463 45.233 11.4463C47.1081 11.4463 48.6777 12.1161 49.9419 13.4576L48.3562 15.1463C47.5503 14.2048 46.5474 13.735 45.3476 13.735C44.3889 13.735 43.569 14.0293 42.8877 14.618C42.2064 15.2067 41.8667 15.9991 41.8667 16.9972C41.8667 17.9953 42.1883 18.7954 42.8314 19.3991C43.4745 20.0029 44.2543 20.3048 45.1687 20.3048L45.1707 20.3029Z" fill="#2D73B5"/>
<path d="M62.4847 20.9406C61.3291 21.9991 59.9062 22.5293 58.218 22.5293C56.5298 22.5293 55.1069 21.9991 53.9513 20.9406C52.7957 19.8821 52.2189 18.5633 52.2189 16.9878C52.2189 15.4123 52.7957 14.0953 53.9513 13.035C55.1069 11.9765 56.5278 11.4463 58.218 11.4463C59.9082 11.4463 61.3291 11.9765 62.4847 13.035C63.6403 14.0935 64.2171 15.4123 64.2171 16.9878C64.2171 18.5633 63.6403 19.8821 62.4847 20.9406ZM61.6185 16.9953C61.6185 16.0387 61.2909 15.2218 60.6377 14.5482C59.9846 13.8727 59.1807 13.535 58.2261 13.535C57.2714 13.535 56.4695 13.8727 55.8144 14.5482C55.1612 15.2236 54.8336 16.0387 54.8336 16.9953C54.8336 17.9519 55.1612 18.7652 55.8144 19.435C56.4675 20.1048 57.2714 20.4406 58.2261 20.4406C59.1807 20.4406 59.9846 20.1048 60.6377 19.435C61.2909 18.7652 61.6185 17.9519 61.6185 16.9953Z" fill="#2D73B5"/>
<path d="M75.8415 11.6914V13.8254H70.1519V16.0348H75.2687V18.0763H70.1519V20.3008H76.0203V22.4197H67.6015V11.6914H75.8415Z" fill="#2D73B5"/>
<path d="M87.516 11.6914H90.0664V22.4197H87.516L82.0716 15.6971V22.4197H79.5213V11.6914H81.9088L87.516 18.599V11.6914Z" fill="#2D73B5"/>
<path d="M102.344 11.6914V13.8254H96.6543V16.0348H101.771V18.0763H96.6543V20.3008H102.523V22.4197H94.104V11.6914H102.344Z" fill="#2D73B5"/>
<path d="M115.291 15.2518C115.291 16.9707 114.565 18.082 113.118 18.582L116.012 22.4197H112.873L110.339 18.9971H108.572V22.4197H106.022V11.6914H110.355C112.131 11.6914 113.398 11.9725 114.155 12.5348C114.913 13.0971 115.291 14.0027 115.291 15.2518ZM112.218 16.5273C112.533 16.2612 112.692 15.8386 112.692 15.2612C112.692 14.6839 112.529 14.2857 112.202 14.0706C111.874 13.8556 111.303 13.748 110.485 13.748H108.572V16.9254H110.435C111.307 16.9254 111.9 16.7933 112.218 16.5254V16.5273Z" fill="#2D73B5"/>
<path d="M126.555 16.9557H129.122V20.7633C127.988 21.9501 126.419 22.5444 124.413 22.5444C122.735 22.5444 121.326 22.0237 120.186 20.9784C119.047 19.935 118.478 18.618 118.478 17.0255C118.478 15.4331 119.059 14.1067 120.219 13.0425C121.378 11.9784 122.779 11.4463 124.421 11.4463C126.063 11.4463 127.486 11.952 128.696 12.9652L127.371 14.7614C126.859 14.3425 126.388 14.0538 125.956 13.8935C125.526 13.735 125.06 13.6557 124.558 13.6557C123.587 13.6557 122.771 13.9652 122.106 14.584C121.441 15.2029 121.109 16.0199 121.109 17.0312C121.109 18.0425 121.428 18.8557 122.066 19.4633C122.703 20.0727 123.464 20.3765 124.347 20.3765C125.229 20.3765 125.964 20.218 126.553 19.901V16.9538L126.555 16.9557Z" fill="#2D73B5"/>
<path d="M137.346 22.4217H134.795V18.1858L130.84 11.6934H133.603L136.071 15.6839L138.539 11.6934H141.303L137.346 18.1858V22.4217Z" fill="#2D73B5"/>
<path d="M144.9 17.0501C144.748 17.1689 144.671 17.3255 144.671 17.5199C144.671 17.7142 144.764 17.8708 144.953 17.9859C145.139 18.101 145.574 18.2369 146.251 18.3935C146.928 18.5501 147.455 18.7859 147.83 19.0991C148.204 19.4123 148.393 19.8708 148.393 20.4708C148.393 21.0708 148.152 21.5614 147.672 21.935C147.191 22.3086 146.558 22.4972 145.775 22.4972C144.643 22.4972 143.624 22.1048 142.718 21.3161L143.668 20.2218C144.438 20.8557 145.151 21.1727 145.805 21.1727C146.098 21.1727 146.327 21.1142 146.494 20.9954C146.661 20.8765 146.743 20.7161 146.743 20.5161C146.743 20.3161 146.655 20.1557 146.478 20.0369C146.301 19.918 145.949 19.7991 145.425 19.6765C144.593 19.4916 143.984 19.2501 143.6 18.952C143.214 18.6538 143.023 18.1878 143.023 17.5501C143.023 16.9123 143.266 16.4218 143.755 16.0765C144.243 15.7312 144.852 15.5576 145.58 15.5576C146.058 15.5576 146.534 15.635 147.013 15.7878C147.489 15.9406 147.905 16.1595 148.261 16.4406L147.453 17.535C146.832 17.0935 146.193 16.8727 145.529 16.8727C145.264 16.8727 145.055 16.9312 144.9 17.0501Z" fill="#2D73B5"/>
<path d="M155.528 22.4213L154.865 20.9723H151.868L151.205 22.4213H149.507L152.596 15.7119H154.139L157.228 22.4213H155.53H155.528ZM153.371 17.7081L152.471 19.6572H154.26L153.369 17.7081H153.371Z" fill="#2D73B5"/>
<path d="M18.4551 13.511H12.872L10.0283 8.26953H15.6093L18.4551 13.511Z" fill="#2D73B5"/>
<path d="M24.6653 13.511H19.0822L16.2364 8.26953H21.8195L24.6653 13.511Z" fill="#2D73B5"/>
<path d="M30.8753 13.511H25.2923L22.4485 8.26953H28.0316L30.8753 13.511Z" fill="#2D73B5"/>
<path d="M24.7496 25.1088H19.1665L16.3228 19.8691H21.9058L24.7496 25.1088Z" fill="#2D73B5"/>
<path d="M30.9597 25.1088H25.3766L22.5328 19.8691H28.1159L30.9597 25.1088Z" fill="#2D73B5"/>
<path d="M37.1698 25.1088H31.5868L28.743 19.8691H34.3261L37.1698 25.1088Z" fill="#2D73B5"/>
<path d="M21.6024 19.3108H16.0193L13.1755 14.0693H18.7586L21.6024 19.3108Z" fill="#2D73B5"/>
<path d="M27.8125 19.3108H22.2294L19.3856 14.0693H24.9687L27.8125 19.3108Z" fill="#2D73B5"/>
<path d="M34.0226 19.3108H28.4396L25.5958 14.0693H31.1788L34.0226 19.3108Z" fill="#2D73B5"/>
<path d="M8.99759 7.75821L17.6093 7.84123C15.9071 6.845 13.8994 6.26953 11.7469 6.26953C5.6172 6.26953 0.649109 10.9356 0.649109 16.6884C0.649109 22.4412 5.61921 27.1092 11.7469 27.1092C14.241 27.1092 16.6286 26.2431 18.4816 24.9393" fill="#F8BF25"/>
</svg>
