<svg width="387" height="74" viewBox="0 0 387 74" fill="none" xmlns="http://www.w3.org/2000/svg">
<path d="M105.946 50.0797C108.887 50.0797 111.287 48.9301 113.153 46.6357L116.986 50.5358C113.945 53.9193 110.358 55.6087 106.229 55.6087C102.099 55.6087 98.7008 54.3242 96.0281 51.7459C93.3554 49.1721 92.0214 45.9236 92.0214 41.9955C92.0214 38.0675 93.3837 34.7957 96.1035 32.1708C98.8281 29.5459 102.156 28.2334 106.092 28.2334C110.49 28.2334 114.171 29.8856 117.136 33.1947L113.417 37.3601C111.527 35.0377 109.175 33.8788 106.361 33.8788C104.112 33.8788 102.189 34.6048 100.591 36.0569C98.9931 37.509 98.1965 39.4637 98.1965 41.9257C98.1965 44.3877 98.9507 46.3611 100.459 47.8504C101.967 49.3397 103.796 50.0843 105.941 50.0843L105.946 50.0797Z" fill="#2D73B5"/>
<path d="M146.555 51.6528C143.845 54.2637 140.507 55.5715 136.548 55.5715C132.588 55.5715 129.251 54.2637 126.54 51.6528C123.83 49.0418 122.477 45.7886 122.477 41.9025C122.477 38.0163 123.83 34.7677 126.54 32.1521C129.251 29.5412 132.583 28.2334 136.548 28.2334C140.512 28.2334 143.845 29.5412 146.555 32.1521C149.265 34.7631 150.618 38.0163 150.618 41.9025C150.618 45.7886 149.265 49.0418 146.555 51.6528ZM144.523 41.9211C144.523 39.5615 143.755 37.5462 142.223 35.8847C140.691 34.2186 138.806 33.3855 136.566 33.3855C134.327 33.3855 132.447 34.2186 130.91 35.8847C129.378 37.5509 128.61 39.5615 128.61 41.9211C128.61 44.2807 129.378 46.2866 130.91 47.9388C132.442 49.591 134.327 50.4194 136.566 50.4194C138.806 50.4194 140.691 49.591 142.223 47.9388C143.755 46.2866 144.523 44.2807 144.523 41.9211Z" fill="#2D73B5"/>
<path d="M177.883 28.8389V34.1026H164.538V39.5526H176.539V44.5883H164.538V50.0755H178.302V55.302H158.556V28.8389H177.883Z" fill="#2D73B5"/>
<path d="M205.265 28.8389H211.247V55.302H205.265L192.495 38.7195V55.302H186.514V28.8389H192.113L205.265 45.8775V28.8389Z" fill="#2D73B5"/>
<path d="M240.043 28.8389V34.1026H226.698V39.5526H238.7V44.5883H226.698V50.0755H240.463V55.302H220.717V28.8389H240.043Z" fill="#2D73B5"/>
<path d="M270.409 37.6211C270.409 41.861 268.707 44.6023 265.314 45.8356L272.101 55.302H264.738L258.794 46.8595H254.651V55.302H248.669V28.8389H258.832C262.999 28.8389 265.969 29.5323 267.746 30.9192C269.523 32.3062 270.409 34.5401 270.409 37.6211ZM263.202 40.7673C263.942 40.1111 264.314 39.0685 264.314 37.6444C264.314 36.2202 263.932 35.2382 263.164 34.7077C262.396 34.1771 261.057 33.9118 259.139 33.9118H254.651V41.7493H259.021C261.066 41.7493 262.457 41.4235 263.202 40.7626V40.7673Z" fill="#2D73B5"/>
<path d="M296.83 41.8233H302.849V51.2153C300.191 54.1427 296.509 55.6087 291.805 55.6087C287.869 55.6087 284.565 54.3242 281.892 51.7459C279.219 49.1721 277.885 45.9236 277.885 41.9955C277.885 38.0675 279.247 34.7957 281.967 32.1708C284.687 29.5459 287.973 28.2334 291.824 28.2334C295.675 28.2334 299.012 29.4807 301.85 31.9799L298.744 36.4106C297.542 35.3774 296.438 34.6653 295.425 34.2698C294.416 33.8788 293.323 33.6833 292.144 33.6833C289.868 33.6833 287.954 34.4466 286.393 35.9731C284.833 37.4997 284.055 39.5149 284.055 42.0095C284.055 44.5041 284.805 46.51 286.299 48.0086C287.793 49.5119 289.58 50.2612 291.649 50.2612C293.719 50.2612 295.444 49.8703 296.825 49.0884V41.8187L296.83 41.8233Z" fill="#2D73B5"/>
<path d="M322.138 55.3059H316.156V44.8575L306.88 28.8428H313.361L319.149 38.6862L324.938 28.8428H331.419L322.138 44.8575V55.3059Z" fill="#2D73B5"/>
<path d="M339.857 42.0564C339.499 42.3496 339.32 42.7359 339.32 43.2152C339.32 43.6946 339.536 44.0809 339.98 44.3648C340.418 44.6487 341.436 44.9838 343.025 45.3701C344.613 45.7564 345.848 46.3381 346.73 47.1107C347.606 47.8833 348.049 49.0142 348.049 50.4942C348.049 51.9742 347.484 53.1843 346.357 54.1058C345.231 55.0273 343.746 55.4927 341.907 55.4927C339.254 55.4927 336.864 54.5247 334.738 52.5793L336.967 49.8799C338.773 51.4437 340.446 52.2256 341.978 52.2256C342.666 52.2256 343.204 52.0813 343.595 51.7881C343.986 51.4949 344.18 51.0993 344.18 50.6059C344.18 50.1126 343.972 49.717 343.557 49.4238C343.142 49.1306 342.318 48.8374 341.087 48.5349C339.136 48.0788 337.708 47.483 336.807 46.7477C335.902 46.0124 335.454 44.8628 335.454 43.2897C335.454 41.7166 336.025 40.5066 337.17 39.6549C338.316 38.8032 339.744 38.375 341.45 38.375C342.572 38.375 343.689 38.5658 344.811 38.9428C345.928 39.3198 346.904 39.8597 347.738 40.5531L345.843 43.2525C344.387 42.1634 342.888 41.6189 341.332 41.6189C340.71 41.6189 340.22 41.7632 339.857 42.0564Z" fill="#2D73B5"/>
<path d="M364.783 55.3058L363.228 51.7315H356.2L354.644 55.3058H350.661L357.906 38.7559H361.526L368.771 55.3058H364.788H364.783ZM359.726 43.6799L357.614 48.4876H361.809L359.721 43.6799H359.726Z" fill="#2D73B5"/>
<path d="M43.2857 33.3275H30.1909L23.5209 20.3984H36.6111L43.2857 33.3275Z" fill="#2D73B5"/>
<path d="M57.8513 33.3275H44.7564L38.0817 20.3984H51.1766L57.8513 33.3275Z" fill="#2D73B5"/>
<path d="M72.4168 33.3275H59.322L52.652 20.3984H65.7468L72.4168 33.3275Z" fill="#2D73B5"/>
<path d="M58.0492 61.9361H44.9544L38.2844 49.0117H51.3793L58.0492 61.9361Z" fill="#2D73B5"/>
<path d="M72.6148 61.9361H59.5199L52.85 49.0117H65.9448L72.6148 61.9361Z" fill="#2D73B5"/>
<path d="M87.1803 61.9361H74.0855L67.4155 49.0117H80.5103L87.1803 61.9361Z" fill="#2D73B5"/>
<path d="M50.6675 47.6341H37.5727L30.9027 34.7051H43.9975L50.6675 47.6341Z" fill="#2D73B5"/>
<path d="M65.2331 47.6341H52.1382L45.4683 34.7051H58.5631L65.2331 47.6341Z" fill="#2D73B5"/>
<path d="M79.7986 47.6341H66.7037L60.0338 34.7051H73.1286L79.7986 47.6341Z" fill="#2D73B5"/>
<path d="M21.1037 19.1379L41.3022 19.3427C37.3097 16.8853 32.6006 15.4658 27.5522 15.4658C13.1752 15.4658 1.52277 26.9754 1.52277 41.1657C1.52277 55.356 13.1799 66.8702 27.5522 66.8702C33.4019 66.8702 39.0019 64.734 43.348 61.518" fill="#F8BF25"/>
<path d="M105.946 50.0797C108.887 50.0797 111.287 48.9301 113.153 46.6357L116.986 50.5358C113.945 53.9193 110.358 55.6087 106.229 55.6087C102.099 55.6087 98.7008 54.3242 96.0281 51.7459C93.3554 49.1721 92.0214 45.9236 92.0214 41.9955C92.0214 38.0675 93.3837 34.7957 96.1035 32.1708C98.8281 29.5459 102.156 28.2334 106.092 28.2334C110.49 28.2334 114.171 29.8856 117.136 33.1947L113.417 37.3601C111.527 35.0377 109.175 33.8788 106.361 33.8788C104.112 33.8788 102.189 34.6048 100.591 36.0569C98.9931 37.509 98.1965 39.4637 98.1965 41.9257C98.1965 44.3877 98.9507 46.3611 100.459 47.8504C101.967 49.3397 103.796 50.0843 105.941 50.0843L105.946 50.0797Z" fill="#2D73B5"/>
<path d="M146.555 51.6528C143.845 54.2637 140.507 55.5715 136.548 55.5715C132.588 55.5715 129.251 54.2637 126.54 51.6528C123.83 49.0418 122.477 45.7886 122.477 41.9025C122.477 38.0163 123.83 34.7677 126.54 32.1521C129.251 29.5412 132.583 28.2334 136.548 28.2334C140.512 28.2334 143.845 29.5412 146.555 32.1521C149.265 34.7631 150.618 38.0163 150.618 41.9025C150.618 45.7886 149.265 49.0418 146.555 51.6528ZM144.523 41.9211C144.523 39.5615 143.755 37.5462 142.223 35.8847C140.691 34.2186 138.806 33.3855 136.566 33.3855C134.327 33.3855 132.447 34.2186 130.91 35.8847C129.378 37.5509 128.61 39.5615 128.61 41.9211C128.61 44.2807 129.378 46.2866 130.91 47.9388C132.442 49.591 134.327 50.4194 136.566 50.4194C138.806 50.4194 140.691 49.591 142.223 47.9388C143.755 46.2866 144.523 44.2807 144.523 41.9211Z" fill="#2D73B5"/>
<path d="M177.883 28.8389V34.1026H164.538V39.5526H176.539V44.5883H164.538V50.0755H178.302V55.302H158.556V28.8389H177.883Z" fill="#2D73B5"/>
<path d="M205.265 28.8389H211.247V55.302H205.265L192.495 38.7195V55.302H186.514V28.8389H192.113L205.265 45.8775V28.8389Z" fill="#2D73B5"/>
<path d="M240.043 28.8389V34.1026H226.698V39.5526H238.7V44.5883H226.698V50.0755H240.463V55.302H220.717V28.8389H240.043Z" fill="#2D73B5"/>
<path d="M270.409 37.6211C270.409 41.861 268.707 44.6023 265.314 45.8356L272.101 55.302H264.738L258.794 46.8595H254.651V55.302H248.669V28.8389H258.832C262.999 28.8389 265.969 29.5323 267.746 30.9192C269.523 32.3062 270.409 34.5401 270.409 37.6211ZM263.202 40.7673C263.942 40.1111 264.314 39.0685 264.314 37.6444C264.314 36.2202 263.932 35.2382 263.164 34.7077C262.396 34.1771 261.057 33.9118 259.139 33.9118H254.651V41.7493H259.021C261.066 41.7493 262.457 41.4235 263.202 40.7626V40.7673Z" fill="#2D73B5"/>
<path d="M296.83 41.8233H302.849V51.2153C300.191 54.1427 296.509 55.6087 291.805 55.6087C287.869 55.6087 284.565 54.3242 281.892 51.7459C279.219 49.1721 277.885 45.9236 277.885 41.9955C277.885 38.0675 279.247 34.7957 281.967 32.1708C284.687 29.5459 287.973 28.2334 291.824 28.2334C295.675 28.2334 299.012 29.4807 301.85 31.9799L298.744 36.4106C297.542 35.3774 296.438 34.6653 295.425 34.2698C294.416 33.8788 293.323 33.6833 292.144 33.6833C289.868 33.6833 287.954 34.4466 286.393 35.9731C284.833 37.4997 284.055 39.5149 284.055 42.0095C284.055 44.5041 284.805 46.51 286.299 48.0086C287.793 49.5119 289.58 50.2612 291.649 50.2612C293.719 50.2612 295.444 49.8703 296.825 49.0884V41.8187L296.83 41.8233Z" fill="#2D73B5"/>
<path d="M322.138 55.3059H316.156V44.8575L306.88 28.8428H313.361L319.149 38.6862L324.938 28.8428H331.419L322.138 44.8575V55.3059Z" fill="#2D73B5"/>
<path d="M339.857 42.0564C339.499 42.3496 339.32 42.7359 339.32 43.2152C339.32 43.6946 339.536 44.0809 339.98 44.3648C340.418 44.6487 341.436 44.9838 343.025 45.3701C344.613 45.7564 345.848 46.3381 346.73 47.1107C347.606 47.8833 348.049 49.0142 348.049 50.4942C348.049 51.9742 347.484 53.1843 346.357 54.1058C345.231 55.0273 343.746 55.4927 341.907 55.4927C339.254 55.4927 336.864 54.5247 334.738 52.5793L336.967 49.8799C338.773 51.4437 340.446 52.2256 341.978 52.2256C342.666 52.2256 343.204 52.0813 343.595 51.7881C343.986 51.4949 344.18 51.0993 344.18 50.6059C344.18 50.1126 343.972 49.717 343.557 49.4238C343.142 49.1306 342.318 48.8374 341.087 48.5349C339.136 48.0788 337.708 47.483 336.807 46.7477C335.902 46.0124 335.454 44.8628 335.454 43.2897C335.454 41.7166 336.025 40.5066 337.17 39.6549C338.316 38.8032 339.744 38.375 341.45 38.375C342.572 38.375 343.689 38.5658 344.811 38.9428C345.928 39.3198 346.904 39.8597 347.738 40.5531L345.843 43.2525C344.387 42.1634 342.888 41.6189 341.332 41.6189C340.71 41.6189 340.22 41.7632 339.857 42.0564Z" fill="#2D73B5"/>
<path d="M364.783 55.3058L363.228 51.7315H356.2L354.644 55.3058H350.661L357.906 38.7559H361.526L368.771 55.3058H364.788H364.783ZM359.726 43.6799L357.614 48.4876H361.809L359.721 43.6799H359.726Z" fill="#2D73B5"/>
<path d="M43.2857 33.3275H30.1909L23.5209 20.3984H36.611L43.2857 33.3275Z" fill="#2D73B5"/>
<path d="M57.8512 33.3275H44.7564L38.0817 20.3984H51.1765L57.8512 33.3275Z" fill="#2D73B5"/>
<path d="M72.4167 33.3275H59.3219L52.6519 20.3984H65.7468L72.4167 33.3275Z" fill="#2D73B5"/>
<path d="M58.0492 61.9361H44.9543L38.2844 49.0117H51.3792L58.0492 61.9361Z" fill="#2D73B5"/>
<path d="M72.6147 61.9361H59.5199L52.8499 49.0117H65.9448L72.6147 61.9361Z" fill="#2D73B5"/>
<path d="M87.1802 61.9361H74.0854L67.4154 49.0117H80.5102L87.1802 61.9361Z" fill="#2D73B5"/>
<path d="M50.6675 47.6341H37.5726L30.9026 34.7051H43.9975L50.6675 47.6341Z" fill="#2D73B5"/>
<path d="M65.233 47.6341H52.1382L45.4682 34.7051H58.563L65.233 47.6341Z" fill="#2D73B5"/>
<path d="M79.7985 47.6341H66.7037L60.0337 34.7051H73.1285L79.7985 47.6341Z" fill="#2D73B5"/>
<path d="M21.1035 19.1379L41.302 19.3427C37.3094 16.8853 32.6004 15.4658 27.5519 15.4658C13.1749 15.4658 1.52252 26.9754 1.52252 41.1657C1.52252 55.356 13.1797 66.8702 27.5519 66.8702C33.4017 66.8702 39.0017 64.734 43.3477 61.518" fill="#F8BF25"/>
</svg>
